<svg width="69" height="69" viewBox="0 0 69 69" fill="none" xmlns="http://www.w3.org/2000/svg">
<rect width="69" height="69" fill="#F7A9D4"/>
<g clip-path="url(#clip0)">
<path d="M53.1458 27.0493H32.9969V25.9527C32.7181 22.9299 31.6124 20.406 29.6797 18.381C27.8055 16.4028 25.3895 15.2752 22.4318 14.9983H21.0697C17.9655 15.3208 15.5056 16.5019 13.6899 18.5416C11.5967 20.9068 10.5281 23.5842 10.4841 26.5738C10.4841 28.3994 10.9232 30.2249 11.8014 32.0504C11.8846 32.2707 11.9292 32.5047 11.9333 32.7412C11.9351 32.991 11.8977 33.2393 11.8226 33.4766C10.6079 37.1435 10.0004 38.9927 10 39.0241L10.0884 38.8861C10.102 38.9506 10.1245 38.9776 10.1537 38.9776C10.9294 38.6865 11.9545 38.3335 13.2288 37.9185C14.8832 37.3667 15.9082 37.0227 16.304 36.8864C18.1632 37.8828 19.9642 38.3814 21.7069 38.3823H22.0585L22.1674 38.3758V48.0426C22.1693 48.8268 22.4706 49.5783 23.0055 50.1329C23.5403 50.6874 24.2652 51 25.0216 51.0022H53.147C53.9035 51 54.6283 50.6874 55.1631 50.1329C55.6979 49.5783 55.9993 48.8268 56.0013 48.0426V30.0081C55.9991 29.2238 55.6976 28.4723 55.1625 27.9179C54.6274 27.3634 53.9023 27.0511 53.1458 27.0493ZM53.129 28.7548L40.6094 41.794C39.7215 42.7054 38.4452 42.708 37.5604 41.7901C35.1337 39.266 32.7598 36.7928 30.3325 34.2649C31.596 32.7374 32.4225 30.9007 32.8121 28.7548H53.129ZM21.6627 36.5161C21.3252 36.5161 20.988 36.4928 20.6534 36.4464C19.3633 36.2934 17.9867 35.7642 16.5236 34.859L12.9208 36.0562C12.9656 35.9018 13.244 35.0118 13.7559 33.3863L14.1074 32.4652C14.0929 32.4652 13.8807 32.1211 13.4709 31.4331C12.8617 30.2553 12.4812 28.9651 12.3509 27.6356C12.3067 27.2615 12.2847 26.8849 12.2849 26.5081C12.2849 23.2866 13.6103 20.6634 16.261 18.6384C17.6951 17.5633 19.2692 16.9724 20.9832 16.8657C21.2458 16.8502 21.5022 16.8438 21.7517 16.8438C24.665 16.8438 27.052 18.0172 28.9125 20.3639C30.4635 22.2358 31.2392 24.2839 31.2397 26.5081C31.2322 27.502 31.1068 28.4912 30.8663 29.4534C30.0163 32.3235 28.2226 34.3947 25.4852 35.6672C24.2853 36.2336 22.9811 36.5232 21.6627 36.5161ZM23.8126 38.1758C25.1522 37.9268 26.4346 37.4184 27.5927 36.6774C28.1494 36.3183 28.678 35.9146 29.1738 35.4698L32.7275 39.1699L23.8126 47.4821V38.1758ZM53.1458 49.2941H25.0204C24.8297 49.2941 24.6417 49.247 24.4722 49.1567L33.8867 40.3787L36.3993 42.9951C37.935 44.5826 40.2299 44.5755 41.7693 42.9951L44.3012 40.3574L53.7207 49.1399C53.5445 49.2402 53.3468 49.2932 53.1458 49.2941ZM54.3548 47.4408L45.4629 39.1505L54.3498 29.8927L54.3548 30.0081V47.4408Z" fill="white"/>
<path d="M27.3241 30.0776C27.3237 29.9731 27.3164 29.8688 27.3023 29.7654C27.1339 29.6058 26.7056 29.3493 26.0174 28.9958C25.1765 28.5658 24.6719 28.3508 24.5035 28.3508C24.379 28.3508 24.1268 28.5991 23.7468 29.0958C23.3647 29.6093 23.1123 29.8735 22.9895 29.8886H22.9435C22.7145 29.8886 22.2559 29.6884 21.5677 29.288C20.8032 28.855 20.0919 28.1981 19.434 27.3174C18.9142 26.5932 18.6544 26.135 18.6544 25.9428L19.1814 25.2216C19.4726 24.8991 19.617 24.6217 19.617 24.383C19.617 24.3185 19.4259 23.7977 19.0439 22.8207C18.6768 21.9709 18.432 21.5142 18.3096 21.4506C18.1415 21.384 17.9626 21.3516 17.7826 21.3551C17.5744 21.3558 17.3665 21.3715 17.1604 21.4022C16.1648 21.6921 15.667 22.6381 15.667 24.2405C15.667 25.1543 16.1258 26.2999 17.0434 27.6773C18.3293 29.5519 19.7209 30.8575 21.218 31.5941C22.3654 32.1712 23.3671 32.5318 24.2228 32.6759H24.5035C24.9776 32.6759 25.4899 32.5318 26.0404 32.2437C26.8966 31.7767 27.3245 31.0546 27.3241 30.0776Z" fill="white"/>
</g>
<defs>
<clipPath id="clip0">
<rect width="46" height="36" fill="white" transform="translate(10 15)"/>
</clipPath>
</defs>
</svg>
