<svg width="96" height="66" viewBox="0 0 96 66" fill="none" xmlns="http://www.w3.org/2000/svg">
<path d="M8.09938 0H87.9006C92.3593 0 96 3.66589 96 8.1542V57.8458C96 62.3346 92.3588 66 87.9006 66H8.09938C3.64075 66 0 62.3341 0 57.8458V8.1552C0 3.66639 3.64124 0.00100149 8.09938 0.00100149V0ZM8.15205 4.70242C20.567 17.2589 31.9036 28.7228 43.675 40.6209C46.1873 43.1497 49.8092 43.1427 52.3289 40.6304C64.1347 28.6868 75.5135 17.1799 87.8519 4.70042L8.15205 4.70242ZM91.3158 7.83754L66.1004 33.3507L91.3292 56.1919V8.1547L91.3153 7.83604L91.3158 7.83754ZM62.8075 36.6779L55.6234 43.9466C51.2557 48.2959 44.7453 48.3149 40.3876 43.9421L33.2576 36.7309L6.5441 60.9199C7.02539 61.1683 7.55852 61.2978 8.09938 61.2976H87.9006C88.4719 61.2983 89.0342 61.1539 89.5354 60.8779L62.8075 36.6779ZM29.9627 33.4007L4.68273 7.83354L4.66832 8.1547V56.3055L29.9627 33.4007Z" fill="#F7A9D4"/>
</svg>
