<svg width="69" height="69" viewBox="0 0 69 69" fill="none" xmlns="http://www.w3.org/2000/svg">
<rect width="69" height="69" fill="#F7A9D4"/>
<g clip-path="url(#clip0)">
<path d="M61.6352 41.8556L54.3997 36.7367C54.3319 36.6748 54.2536 36.6247 54.1684 36.5887C54.0535 36.5093 53.921 36.4576 53.7818 36.4379C53.6426 36.4182 53.5005 36.4311 53.3674 36.4755L41.5219 35.2393L39.6708 34.1947C39.8399 34.0031 40.009 33.8116 40.1692 33.6114C42.1449 31.3305 44.1918 28.9713 44.1918 25.4368C44.1905 24.0927 43.8971 22.7642 43.3309 21.5394C42.7647 20.3147 41.9388 19.2217 40.9078 18.333C39.8718 17.4407 38.6535 16.7742 37.3339 16.3779C36.0143 15.9817 34.6235 15.8647 33.2541 16.0348C30.807 16.3702 28.5802 17.5985 27.0203 19.4731C25.4604 21.3477 24.683 23.73 24.8439 26.142C25.0486 28.8407 26.4726 30.8517 28.03 32.706L7.56075 41.2897C7.40795 41.3527 7.27617 41.4561 7.18025 41.5884C7.08433 41.7207 7.02809 41.8766 7.01787 42.0384C7.00744 42.2005 7.04358 42.3623 7.12222 42.5054C7.20086 42.6484 7.31885 42.7672 7.46286 42.8481L15.7307 47.4968H15.7752C15.8548 47.5399 15.9426 47.5666 16.0332 47.5752H16.0777L28.5373 48.8984L35.4078 53.791C35.5605 53.8991 35.7444 53.9571 35.9329 53.9564C36.055 53.9551 36.1757 53.9315 36.2889 53.8868L61.5017 43.3181C61.6454 43.2581 61.7703 43.1622 61.8641 43.0399C61.9578 42.9177 62.017 42.7734 62.0357 42.6217C62.0425 42.471 62.0092 42.3212 61.939 42.1869C61.8687 42.0526 61.7641 41.9384 61.6352 41.8556ZM26.5794 26.0201C26.4609 24.0581 27.1006 22.1242 28.3716 20.6019C29.6426 19.0797 31.452 18.0803 33.441 17.802C33.7833 17.7574 34.1281 17.7342 34.4734 17.7324C36.3982 17.7275 38.2577 18.4154 39.6975 19.665C40.5372 20.393 41.2093 21.287 41.6696 22.288C42.1298 23.289 42.3677 24.3741 42.3674 25.4716C42.3674 28.3706 40.6943 30.2946 38.8075 32.5232C37.1433 34.4558 35.301 36.58 34.4912 39.5921C33.6902 36.58 31.8213 34.4558 30.1837 32.5232C28.3593 30.4338 26.8108 28.6144 26.5794 26.0201ZM35.9774 52.1369L29.3205 47.3924C29.1944 47.3047 29.0472 47.2507 28.8933 47.2357L19.5308 46.2432L31.4386 41.1156C31.5464 41.0702 31.6439 41.0044 31.7255 40.9219C31.8072 40.8395 31.8714 40.742 31.9144 40.6352C31.9574 40.5284 31.9784 40.4144 31.9761 40.2996C31.9739 40.1848 31.9485 40.0716 31.9014 39.9665C31.8541 39.8618 31.7862 39.7673 31.7015 39.6884C31.6169 39.6094 31.5172 39.5475 31.4081 39.5063C31.299 39.4651 31.1826 39.4453 31.0657 39.448C30.9488 39.4508 30.8335 39.4761 30.7266 39.5225L16.1756 45.7818L9.83907 42.2125L29.187 34.1076C31.1004 36.3362 32.9604 38.7216 33.0939 42.4215H34.4645H35.835C35.9497 39.927 36.8863 37.5358 38.5049 35.605L40.7565 36.876C40.8624 36.9366 40.9812 36.9724 41.1036 36.9805L50.0923 37.9294L36.3423 44.0233C36.1278 44.1183 35.9606 44.2926 35.8772 44.508C35.7938 44.7234 35.801 44.9623 35.8973 45.1724C35.9675 45.3252 36.0812 45.4549 36.2249 45.546C36.3685 45.6371 36.536 45.6857 36.7072 45.6861C36.8331 45.6855 36.9575 45.6588 37.0721 45.6077L53.5454 38.3211L59.2768 42.3779L35.9774 52.1369Z" fill="white"/>
<path d="M34.4998 29.0585C35.4439 29.0585 36.3494 28.6916 37.017 28.0385C37.6846 27.3855 38.0597 26.4998 38.0597 25.5762C38.0597 24.6527 37.6846 23.767 37.017 23.1139C36.3494 22.4609 35.4439 22.094 34.4998 22.094C33.5557 22.094 32.6502 22.4609 31.9826 23.1139C31.315 23.767 30.9399 24.6527 30.9399 25.5762C30.9399 26.4998 31.315 27.3855 31.9826 28.0385C32.6502 28.6916 33.5557 29.0585 34.4998 29.0585ZM34.4998 23.8351C34.9719 23.8351 35.4246 24.0186 35.7584 24.3451C36.0922 24.6716 36.2797 25.1145 36.2797 25.5762C36.2797 26.038 36.0922 26.4809 35.7584 26.8074C35.4246 27.1339 34.9719 27.3174 34.4998 27.3174C34.0277 27.3174 33.575 27.1339 33.2412 26.8074C32.9074 26.4809 32.7199 26.038 32.7199 25.5762C32.7199 25.1145 32.9074 24.6716 33.2412 24.3451C33.575 24.0186 34.0277 23.8351 34.4998 23.8351Z" fill="white"/>
</g>
<defs>
<clipPath id="clip0">
<rect width="55" height="38" fill="white" transform="translate(7 16)"/>
</clipPath>
</defs>
</svg>
