<svg width="831" height="273" viewBox="0 0 831 273" fill="none" xmlns="http://www.w3.org/2000/svg">
<g clip-path="url(#clip0)">
<path d="M105.887 256.913C105.62 257.064 105.324 257.157 105.019 257.187C104.714 257.217 104.405 257.182 104.115 257.085C103.824 256.987 103.556 256.83 103.33 256.623C103.103 256.416 102.923 256.163 102.8 255.881C91.6862 227.77 89.9883 197.565 84.7608 167.762C84.4418 166.225 84.6168 165.277 85.1416 164.74C87.0453 162.812 93.4767 164.74 98.1793 168.092C104.014 172.217 105.774 177.528 108.089 176.899C109.416 176.538 110.147 174.475 110.24 173.135C110.723 165.761 93.0342 158.914 87.6009 156.955C87.3309 156.862 87.0823 156.715 86.8701 156.524C86.6579 156.333 86.4865 156.1 86.3661 155.841C85.3851 153.702 84.9467 151.353 85.0901 149.004C85.0953 148.956 85.0953 148.907 85.0901 148.859C84.6476 122.532 84.0611 96.0084 83.7524 68.9074C82.8777 -23.9041 58.4692 9.86897 38.4753 72.1558C38.4523 72.233 38.4248 72.3088 38.3929 72.3827C31.1898 88.0575 27.6705 102.557 18.9752 130.132C14.5607 144.147 12.3071 151.314 10.3108 159.399C8.75698 165.679 7.82057 170.268 6.72981 175.599C6.72981 175.599 -2.17127 219.303 0.555653 240.568C0.555653 240.722 0.607107 240.887 0.607107 240.887C5.98891 268.143 9.29208 231.348 9.96095 223.243C12.1219 207.661 13.7683 192.006 17.2259 177.023C17.3009 176.687 17.4524 176.372 17.6684 176.105C25.8491 166.432 56.0819 164.091 70.0972 161.729C70.6295 161.639 71.1764 161.75 71.6311 162.042C72.0858 162.334 72.4158 162.785 72.5566 163.307C74.2339 169.495 75.4379 174.651 76.2096 177.94C76.2096 177.94 92.8284 250.127 99.2084 268.968C99.4142 269.597 99.7332 271.762 101.349 272.639C103.335 273.67 106.401 272.433 108.109 270.752C112.308 266.627 110.816 257.521 107.955 256.583C107.607 256.485 107.242 256.464 106.885 256.521C106.528 256.578 106.187 256.712 105.887 256.913ZM74.6661 68.8868C73.0711 93.884 74.1001 120.026 72.9888 144.91C72.9888 147.849 75.7774 154.583 70.303 152.634C53.7357 150.427 37.3742 156.356 21.3214 160.368C23.6676 144.167 29.461 127.533 33.4022 111.621L33.0626 112.653C43.4249 82.3444 51.9246 48.7158 69.9634 22.2026C75.9627 36.7843 72.1759 53.4388 74.6661 68.8868Z" fill="#F7A9D4"/>
<path d="M231.675 156.645L233.023 155.965C227.569 165.318 201.442 232.029 200.814 189.253C198.756 171.99 200.866 154.387 198.458 137.144C189.855 120.511 190.082 155.707 190.04 160.708C167.577 167.185 186.336 153.057 178.001 135.794C162.565 110.322 135.811 162.472 131.695 176.476C130.145 160.921 130.011 145.257 131.293 129.678C131.293 129.266 131.458 105.96 131.715 59.3169C131.715 56.9863 131.715 51.4073 128.69 49.9017C128.021 49.6445 127.308 49.5239 126.593 49.5469C125.877 49.5699 125.173 49.7361 124.522 50.0357C116.403 53.2841 119.552 91.5328 120.468 122.738C120.787 133.618 121.044 150.334 120.293 171.103C122.351 178.435 116.805 214.323 127.002 214.477C134.432 208.372 129.06 197.297 133.043 189.253C137.251 174.682 144.3 161.41 152.841 148.911C162.987 134.288 173.627 127.502 170.335 151.602C172.228 168.443 159.561 177.456 150.536 189.253C144.588 196.039 128.597 217.653 139.803 224.222C153.428 219.654 161.259 207.228 167.649 195.348C174.327 184.313 172.794 166.133 190.01 165.741C187.231 216.076 206.474 239.361 228.084 179.879C229.102 174.702 244.98 151.097 231.675 156.645ZM163.574 187.582C158.542 196.998 153.17 206.413 145.123 213.807C145.751 209.878 161.742 181.57 163.625 187.572L163.574 187.582Z" fill="#F7A9D4"/>
<path d="M192.757 96.7921C200.403 95.534 199.466 83.6026 192.418 87.3769C189.763 89.46 187.849 96.0084 192.757 96.7921Z" fill="#F7A9D4"/>
<path d="M260.014 206.588C250.97 201.359 243.64 193.605 238.919 184.272C233.726 174.468 231.129 162.675 231.129 148.89C231.129 135.244 233.788 123.388 239.104 113.323C243.982 103.729 251.475 95.7191 260.714 90.2231C269.731 84.9142 280.015 82.1523 290.473 82.231C297.762 82.1515 304.975 83.7164 311.579 86.8097C317.781 89.714 323.413 93.7098 328.208 98.6071L314.007 115.757C310.85 112.622 307.204 110.023 303.213 108.064C299.411 106.279 295.257 105.376 291.06 105.424C285.085 105.348 279.237 107.151 274.338 110.58C269.166 114.331 265.154 119.467 262.762 125.399C259.839 132.535 258.417 140.199 258.584 147.911C258.584 161.296 261.468 171.822 267.238 179.487C273.007 187.153 280.818 190.985 290.669 190.985C300.397 190.985 308.889 186.892 316.147 178.703L330.327 195.44C319.694 207.918 306.145 214.154 289.681 214.147C279.3 214.295 269.064 211.687 260.014 206.588Z" fill="#F7A9D4"/>
<path d="M351.237 206.011C345.976 200.545 343.348 193.67 343.355 185.386C343.355 175.122 347.701 167.164 356.393 161.513C365.085 155.861 379.035 151.981 398.243 149.87C397.852 139.475 392.536 134.278 382.293 134.278C378.087 134.315 373.923 135.123 370.007 136.66C365.294 138.485 360.74 140.7 356.393 143.28L346.864 125.749C360.481 117.3 373.965 113.079 387.315 113.086C399.663 113.086 409 116.692 415.325 123.903C421.65 131.115 424.826 141.868 424.854 156.161V211.909H403.069L401.124 201.772H400.538C390.934 210.084 381.405 214.24 371.952 214.24C363.411 214.206 356.506 211.463 351.237 206.011ZM389.548 191.316C392.703 189.44 395.614 187.177 398.212 184.581V166.019C387.703 167.456 380.18 169.601 375.646 172.454C371.111 175.307 368.841 178.879 368.834 183.169C368.834 186.551 369.863 189.119 371.921 190.872C373.979 192.625 376.912 193.502 380.667 193.502C383.767 193.563 386.829 192.809 389.548 191.316Z" fill="#F7A9D4"/>
<path d="M449.941 74.7855H475.811V155.676H476.593L508.678 115.323H537.666L504.233 154.933L540.403 211.858H511.59L489.024 172.867L475.801 187.881V211.858H449.941V74.7855Z" fill="#F7A9D4"/>
<path d="M628.107 171.309H568.588C569.885 178.982 573.03 184.637 578.024 188.273C583.083 191.931 589.189 193.846 595.425 193.729C602.285 193.729 609.42 191.584 616.829 187.294L625.576 203.474C620.664 206.913 615.253 209.574 609.533 211.363C603.846 213.214 597.906 214.167 591.926 214.188C583.346 214.311 574.877 212.234 567.323 208.156C559.98 204.116 553.967 198.026 550.014 190.625C545.795 182.966 543.689 174.001 543.696 163.73C543.696 153.589 545.802 144.686 550.014 137.021C553.879 129.727 559.621 123.603 566.643 119.283C573.256 115.219 580.866 113.077 588.623 113.096C601.713 113.096 611.763 117.352 618.774 125.863C625.785 134.374 629.284 145.515 629.27 159.285C629.354 163.325 628.963 167.361 628.107 171.309ZM606.498 153.572C606.498 147.337 605.071 142.431 602.217 138.856C599.363 135.281 595.02 133.494 589.189 133.494C584.464 133.467 579.905 135.244 576.44 138.465C572.749 141.785 570.255 146.821 568.959 153.572H606.498Z" fill="#F7A9D4"/>
<path d="M657.959 210.486C651.654 208.232 645.77 204.938 640.548 200.741L652.608 183.983C656.56 187.139 660.909 189.76 665.543 191.78C669.532 193.452 673.814 194.311 678.138 194.306C682.549 194.306 685.856 193.495 688.058 191.872C689.139 191.084 690.008 190.04 690.586 188.832C691.165 187.624 691.434 186.291 691.371 184.953C691.362 183.905 691.121 182.872 690.666 181.929C690.21 180.985 689.551 180.155 688.737 179.497C686.495 177.643 683.969 176.163 681.256 175.115C678.015 173.743 674.763 172.413 671.532 171.113C664.668 168.598 658.31 164.868 652.762 160.1C647.892 155.748 645.46 150.001 645.467 142.858C645.353 138.744 646.189 134.659 647.91 130.922C649.63 127.186 652.189 123.898 655.386 121.315C662 115.815 670.753 113.065 681.647 113.065C693.577 113.065 704.663 117.09 714.905 125.141L703.041 141.125C695.385 135.673 688.524 132.947 682.46 132.947C678.44 132.947 675.425 133.724 673.415 135.278C672.457 135.994 671.683 136.929 671.159 138.005C670.634 139.082 670.374 140.268 670.4 141.465C670.4 144.064 671.696 146.175 674.29 147.797C677.107 149.529 680.11 150.937 683.242 151.994C686.604 153.163 688.806 153.943 689.848 154.335C698.019 157.326 704.471 160.932 709.204 165.153C713.938 169.374 716.305 175.448 716.305 183.375C716.383 188.947 714.792 194.415 711.736 199.07C708.407 203.916 703.791 207.731 698.41 210.084C692.579 212.834 685.578 214.209 677.407 214.209C670.755 214.143 664.168 212.882 657.959 210.486Z" fill="#F7A9D4"/>
<path d="M829.405 57.1719C825.495 43.8174 815.544 35.8046 807.518 31.2672C803.739 29.2984 799.66 27.974 795.447 27.3485C773.416 24.1826 754.183 42.3014 753.01 40.5483C752.218 39.3418 760.872 30.3391 773.076 24.4094C773.961 23.9763 774.836 23.5845 775.711 23.2029C771.254 14.2955 763.849 7.2163 754.76 3.17623C749.285 1.11375 739.942 -1.45404 729.621 1.01062C708.011 6.16682 696.753 30.1431 695.025 28.9469C693.831 28.1219 698.575 16.572 707.743 6.53808L708.268 5.9812C706.246 5.43243 704.18 5.05641 702.094 4.85715C694.779 4.16263 687.426 5.70121 680.999 9.27086C673.782 13.4325 668.18 19.9154 665.101 27.6682C664.247 29.7306 659.204 42.7449 665.327 57.0791C668.067 63.4235 672.456 68.915 678.036 72.9808L665.492 97.8028C669.462 96.9877 673.492 96.5014 677.542 96.3487C688.465 96.0316 699.332 98.0166 709.441 102.175C727.861 109.561 743.389 122.741 753.689 139.733C757.73 132.329 761.781 124.931 765.842 117.541C772.505 119.727 779.568 120.41 786.526 119.541C808.248 116.705 819.979 99.133 822.006 95.9671C824.62 91.9556 834.9 75.9096 829.405 57.1719Z" fill="#F7A9D4"/>
</g>
<defs>
<clipPath id="clip0">
<rect width="831" height="273" fill="white"/>
</clipPath>
</defs>
</svg>
