<svg width="24" height="24" viewBox="0 0 24 24" fill="none" xmlns="http://www.w3.org/2000/svg">
<g clip-path="url(#clip0)">
<path d="M23.9859 9.53215C23.9859 8.97216 23.9696 8.51026 23.9614 8.17099C23.9532 7.83173 23.941 7.45568 23.9246 7.0551C23.8592 5.82884 23.6773 4.84578 23.3728 4.14068C23.0558 3.34728 22.5806 2.62669 21.9763 2.02271C21.372 1.41874 20.6511 0.944028 19.8575 0.627452C19.134 0.32293 18.1653 0.13693 16.9451 0.0735728L15.8149 0.0245243C15.4614 0.00817409 15.0097 0 14.4538 0H9.5487C9.0037 0 8.55068 0.00817409 8.18961 0.0245243L7.0594 0.0735728C5.82224 0.137611 4.85077 0.322248 4.14498 0.627452C3.3519 0.944467 2.63155 1.41935 2.02761 2.02329C1.42368 2.62722 0.948769 3.3476 0.631753 4.14068C0.327232 4.84578 0.141258 5.81862 0.0799454 7.0551C0.0635952 7.46385 0.0493008 7.82764 0.0411257 8.17099C0.0329506 8.51435 0.0247536 8.97216 0.0186223 9.53215C0.0124909 10.0921 0.00634766 10.9137 0.00634766 11.9847C0.00634766 13.0556 0.00635963 13.9017 0.0186223 14.4658C0.0308849 15.0299 0.0329506 15.4877 0.0411257 15.8249C0.0493008 16.1621 0.0635952 16.5443 0.0799454 16.9449C0.141258 18.1712 0.327232 19.1501 0.631753 19.8552C0.949955 20.6481 1.42521 21.3684 2.02896 21.9729C2.63272 22.5773 3.35249 23.0535 4.14498 23.3726C4.85008 23.6771 5.82292 23.859 7.0594 23.9244L8.17938 23.9734C8.52274 23.9898 8.97649 23.9959 9.53852 23.9959H14.4599C15.0158 23.9959 15.4675 23.9959 15.8211 23.9734L16.9513 23.9244C18.1775 23.859 19.1565 23.6771 19.8637 23.3726C20.6569 23.0543 21.3773 22.5785 21.9815 21.974C22.5857 21.3694 23.0611 20.6486 23.3789 19.8552C23.6835 19.1501 23.8653 18.1814 23.9307 16.9449C23.9471 16.5362 23.9593 16.1703 23.9675 15.8249C23.9757 15.4795 23.9839 15.0279 23.9921 14.4658C24.0002 13.9038 24.0043 13.076 24.0043 11.9847C24.0043 10.8933 23.9941 10.0942 23.9859 9.53215ZM21.8359 14.4188C21.8359 14.9645 21.8358 15.4039 21.8113 15.7432C21.7868 16.0824 21.7786 16.4483 21.7643 16.8509C21.6826 17.9559 21.5463 18.6937 21.3556 19.0643C21.1662 19.5902 20.8618 20.0671 20.4645 20.4602C20.0842 20.8599 19.6151 21.1644 19.0952 21.3492C18.7232 21.5441 17.9738 21.6803 16.847 21.758C16.4383 21.7743 16.0765 21.7886 15.7393 21.7968L14.4149 21.8213C13.8713 21.8213 13.0681 21.8213 12.0074 21.8213C10.9466 21.8213 10.123 21.8213 9.57939 21.8213L8.25503 21.7968C7.91781 21.7968 7.54785 21.7743 7.14727 21.758C6.03818 21.6803 5.29973 21.5441 4.93186 21.3492C4.4119 21.149 3.93726 20.8467 3.53594 20.4602C3.13999 20.066 2.83578 19.5894 2.64489 19.0643C2.45482 18.6944 2.31584 17.9566 2.23613 16.8509C2.21978 16.4421 2.20344 16.0804 2.18708 15.7432C2.17073 15.4059 2.16458 14.9645 2.16458 14.4188V9.57915C2.16458 9.03551 2.1646 8.59406 2.18708 8.25479C2.20957 7.91553 2.21978 7.54969 2.23613 7.14911C2.31584 6.02708 2.45482 5.2811 2.64489 4.90096C2.83319 4.38114 3.13798 3.91134 3.53594 3.52755C3.93026 3.13223 4.40688 2.82869 4.93186 2.63851C5.29973 2.44504 6.03818 2.30879 7.14727 2.22976C7.50084 2.19706 7.82376 2.17661 8.12215 2.16844C8.42054 2.16026 8.77616 2.15619 9.19104 2.15619H14.4149C14.9599 2.15619 15.4014 2.16436 15.7393 2.18071L16.847 2.22976C17.9698 2.30742 18.7191 2.44368 19.0952 2.63851C19.6096 2.8359 20.0768 3.13935 20.4662 3.52915C20.8557 3.91894 21.1587 4.38634 21.3556 4.90096C21.5477 5.2702 21.6839 6.01958 21.7643 7.14911C21.7786 7.55786 21.795 7.92166 21.8113 8.25479C21.8277 8.58793 21.8359 9.03551 21.8359 9.57915V14.4188Z" fill="#3D455A"/>
<path d="M16.3666 7.63142C15.3571 6.62167 14.0286 5.99331 12.6076 5.85342C11.1867 5.71354 9.76121 6.0708 8.57417 6.86431C7.38713 7.65781 6.51202 8.83844 6.09804 10.2049C5.68406 11.5714 5.75682 13.0392 6.30392 14.3581C6.85102 15.6769 7.83859 16.7652 9.09829 17.4375C10.358 18.1097 11.8118 18.3242 13.212 18.0444C14.6121 17.7647 15.8719 17.008 16.7766 15.9034C17.6813 14.7988 18.175 13.4145 18.1733 11.9867C18.1862 11.1758 18.0325 10.3708 17.7217 9.62168C17.4109 8.87253 16.9497 8.19513 16.3666 7.63142ZM14.8256 14.8276C14.4619 15.2064 14.0242 15.5066 13.5398 15.7094C13.0554 15.9123 12.5344 16.0135 12.0093 16.0068C11.0765 16.0139 10.1702 15.697 9.44517 15.11C8.72016 14.5231 8.22147 13.7027 8.03424 12.7888C7.847 11.875 7.98287 10.9245 8.41864 10.0998C8.85441 9.27503 9.56302 8.62716 10.4234 8.26688C11.2839 7.9066 12.2427 7.85628 13.1361 8.12447C14.0295 8.39267 14.8021 8.96275 15.3219 9.73734C15.8416 10.5119 16.0762 11.443 15.9857 12.3714C15.8952 13.2998 15.4851 14.1679 14.8256 14.8276Z" fill="#3D455A"/>
<path d="M19.8347 5.58358C19.838 5.77381 19.8021 5.96269 19.7293 6.13848C19.6566 6.31427 19.5484 6.47323 19.4116 6.60546C19.2827 6.74046 19.1276 6.84763 18.9557 6.92039C18.7838 6.99315 18.5989 7.02994 18.4122 7.02851C18.2225 7.02825 18.0346 6.99061 17.8594 6.91774C17.6842 6.84488 17.5251 6.73821 17.3911 6.60384C17.2571 6.46948 17.1509 6.31005 17.0785 6.13464C17.0062 5.95923 16.969 5.77129 16.9693 5.58153C16.9674 5.39513 17.004 5.21034 17.0768 5.03873C17.1496 4.86712 17.2571 4.71237 17.3924 4.58417C17.5248 4.44774 17.6838 4.33995 17.8596 4.26753C18.0354 4.1951 18.2242 4.15958 18.4143 4.16314C18.6029 4.15939 18.7902 4.19487 18.9643 4.26735C19.1385 4.33983 19.2957 4.44772 19.4259 4.58417C19.5573 4.71506 19.6611 4.87091 19.7313 5.04255C19.8015 5.21419 19.8367 5.39815 19.8347 5.58358Z" fill="#3D455A"/>
</g>
<defs>
<clipPath id="clip0">
<rect width="24" height="23.9959" fill="white"/>
</clipPath>
</defs>
</svg>
