<svg width="69" height="69" viewBox="0 0 69 69" fill="none" xmlns="http://www.w3.org/2000/svg">
<rect width="69" height="69" fill="#F7A9D4"/>
<g clip-path="url(#clip0)">
<path d="M35.7366 47.0931V44.5394C38.3326 44.3153 40.9788 42.8696 41.3507 40.13C41.5058 38.9837 41.2904 37.6998 40.6715 36.7095C39.9737 35.593 38.7619 34.973 37.55 34.5474C35.8356 33.9459 33.9863 33.892 32.2776 33.2564C31.8074 33.0857 31.3703 32.8367 30.9853 32.5201C30.8949 32.4421 30.6005 32.1072 30.6537 32.1796C30.589 32.093 30.3952 31.7001 30.4124 31.7625C30.3551 31.5985 30.3119 31.43 30.2832 31.2588V31.2489C30.2832 31.2305 30.2832 31.2021 30.2832 31.1567C30.2761 31.063 30.2732 30.9708 30.2717 30.8729C30.2602 30.3693 30.2717 30.2941 30.4756 29.7479C30.4756 29.7649 30.6766 29.3705 30.7628 29.2357C30.9291 29.0153 31.122 28.8157 31.3371 28.6413C31.9258 28.1419 32.773 27.9547 33.5153 27.8355C35.1737 27.573 37.0877 27.8823 38.3081 29.0854C38.6275 29.4035 38.8846 29.7772 39.0663 30.1877L39.0878 30.2317C39.0903 30.2384 39.0932 30.2451 39.0964 30.2516C39.1194 30.314 39.1409 30.3764 39.1625 30.4403C39.184 30.5041 39.1955 30.5481 39.2084 30.6048C39.4956 31.8547 41.4354 31.3354 41.1511 30.0898C40.7807 28.4711 39.3922 27.0906 37.9032 26.4338C37.2166 26.1377 36.4918 25.9367 35.7495 25.8365V23.4063C35.7495 22.1294 33.7393 22.1124 33.7393 23.3921V25.7798C32.0536 25.9216 30.4282 26.5416 29.3887 27.766C28.8261 28.4318 28.4581 29.2368 28.3242 30.094C28.1904 30.9512 28.2958 31.8283 28.6291 32.6307C29.7778 35.3348 33.4378 35.576 35.8945 36.1378C37.2011 36.4357 38.7662 36.999 39.1969 38.2006C39.7253 39.686 39.2055 41.0934 37.8243 41.9148C36.3166 42.81 34.4601 42.6951 32.8175 42.2823C31.0413 41.8339 29.818 40.7117 29.3915 38.9341C29.0943 37.6856 27.1531 38.2035 27.4503 39.4477C27.798 41.0062 28.7401 42.3725 30.0808 43.2626C31.1548 43.9819 32.4599 44.2968 33.7364 44.4671V47.069C33.7264 48.3614 35.7366 48.3728 35.7366 47.0931Z" fill="white"/>
<path d="M13.7879 27.4893C13.8798 28.271 14.559 28.6951 15.3027 28.3518L21.451 25.5144C22.6256 24.9724 21.5946 23.2629 20.4344 23.8006L17.0602 25.3612C18.5249 22.7507 20.5551 20.492 23.0057 18.7466C25.4562 17.0011 28.2667 15.812 31.2363 15.2642C37.6244 14.0881 44.3111 16.2289 48.9388 20.6809C52.8084 24.4064 54.9593 29.5932 54.9837 34.9148C54.9837 36.1916 57.0011 36.2087 56.9939 34.929C56.979 31.7353 56.2656 28.5826 54.9025 25.6867C53.5395 22.7909 51.559 20.2203 49.0967 18.1513C43.9622 13.8597 37.0902 12.17 30.5011 13.383C24.1432 14.5548 18.5549 18.6705 15.4018 24.2007C15.2697 23.0818 15.1381 21.9624 15.0069 20.8426C14.9438 20.3049 14.6063 19.8495 14.0019 19.841C13.5051 19.841 12.925 20.2893 12.9881 20.8341L13.7879 27.4893Z" fill="white"/>
<path d="M56.2114 42.5177C56.1195 41.736 55.4403 41.3104 54.6965 41.6537L48.5468 44.4911C47.3738 45.0316 48.4032 46.7426 49.5648 46.2035L52.9391 44.6429C51.4743 47.2531 49.444 49.5114 46.9934 51.2563C44.5428 53.0013 41.7324 54.1898 38.763 54.7371C32.3749 55.9146 25.6882 53.7738 21.0605 49.3204C17.1837 45.5963 15.04 40.4095 15.0156 35.0879C15.0084 33.811 12.9982 33.7926 13.0054 35.0723C13.0195 38.2657 13.7321 41.4183 15.0944 44.3142C16.4567 47.2101 18.4366 49.7807 20.8982 51.85C26.0328 56.1416 32.9048 57.8299 39.4924 56.6169C45.8518 55.4464 51.44 51.3307 54.5932 45.8006C54.7253 46.9204 54.8569 48.0398 54.988 49.1587C55.0512 49.6964 55.3886 50.1518 55.9931 50.1589C56.4899 50.1589 57.07 49.712 57.0068 49.1658L56.2114 42.5177Z" fill="white"/>
</g>
<defs>
<clipPath id="clip0">
<rect width="44" height="44" fill="white" transform="translate(13 13)"/>
</clipPath>
</defs>
</svg>
