<svg width="69" height="69" viewBox="0 0 69 69" fill="none" xmlns="http://www.w3.org/2000/svg">
<rect width="69" height="69" fill="#F7A9D4"/>
<g clip-path="url(#clip0)">
<path d="M40.9689 38.9328C41.1942 38.9328 41.4102 38.8428 41.5694 38.6826C41.7287 38.5225 41.8182 38.3052 41.8182 38.0787V37.9306C41.8182 37.7041 41.7287 37.4869 41.5694 37.3267C41.4102 37.1665 41.1942 37.0765 40.9689 37.0765C40.7437 37.0765 40.5276 37.1665 40.3684 37.3267C40.2091 37.4869 40.1196 37.7041 40.1196 37.9306V38.0787C40.1196 38.3052 40.2091 38.5225 40.3684 38.6826C40.5276 38.8428 40.7437 38.9328 40.9689 38.9328Z" fill="white"/>
<path d="M40.9689 50.765C40.7437 50.765 40.5276 50.855 40.3684 51.0152C40.2091 51.1754 40.1196 51.3926 40.1196 51.6191V51.7672C40.1196 51.9937 40.2091 52.2109 40.3684 52.3711C40.5276 52.5313 40.7437 52.6213 40.9689 52.6213C41.1942 52.6213 41.4102 52.5313 41.5694 52.3711C41.7287 52.2109 41.8182 51.9937 41.8182 51.7672V51.6191C41.8182 51.3926 41.7287 51.1754 41.5694 51.0152C41.4102 50.855 41.1942 50.765 40.9689 50.765Z" fill="white"/>
<path d="M34.2367 43.9949H34.0895C33.8643 43.9949 33.6483 44.0849 33.489 44.245C33.3297 44.4052 33.2402 44.6225 33.2402 44.849C33.2402 45.0755 33.3297 45.2928 33.489 45.4529C33.6483 45.6131 33.8643 45.7031 34.0895 45.7031H34.2367C34.462 45.7031 34.678 45.6131 34.8373 45.4529C34.9966 45.2928 35.086 45.0755 35.086 44.849C35.086 44.6225 34.9966 44.4052 34.8373 44.245C34.678 44.0849 34.462 43.9949 34.2367 43.9949Z" fill="white"/>
<path d="M47.7009 43.9949C47.4756 43.9949 47.2596 44.0849 47.1003 44.245C46.9411 44.4052 46.8516 44.6225 46.8516 44.849C46.8516 45.0755 46.9411 45.2928 47.1003 45.4529C47.2596 45.6131 47.4756 45.7031 47.7009 45.7031H47.8481C48.0733 45.7031 48.2893 45.6131 48.4486 45.4529C48.6079 45.2928 48.6974 45.0755 48.6974 44.849C48.6974 44.6225 48.6079 44.4052 48.4486 44.245C48.2893 44.0849 48.0733 43.9949 47.8481 43.9949H47.7009Z" fill="white"/>
<path d="M36.7056 39.3542C36.5446 39.2034 36.3317 39.1212 36.1117 39.1251C35.8916 39.129 35.6817 39.2187 35.5261 39.3752C35.3705 39.5316 35.2814 39.7428 35.2775 39.9641C35.2736 40.1853 35.3553 40.3995 35.5053 40.5614L35.6072 40.6639C35.6856 40.7437 35.7791 40.807 35.8821 40.85C35.9852 40.8931 36.0958 40.9149 36.2074 40.9144C36.3191 40.9159 36.4299 40.8945 36.5331 40.8514C36.6363 40.8083 36.7297 40.7445 36.8075 40.6639C36.887 40.5849 36.95 40.491 36.9931 40.3874C37.0361 40.2837 37.0583 40.1726 37.0583 40.0603C37.0583 39.948 37.0361 39.8368 36.9931 39.7332C36.95 39.6296 36.887 39.5356 36.8075 39.4567L36.7056 39.3542Z" fill="white"/>
<path d="M46.3306 49.034C46.1696 48.8832 45.9567 48.801 45.7367 48.8049C45.5166 48.8088 45.3067 48.8985 45.1511 49.055C44.9955 49.2114 44.9064 49.4226 44.9025 49.6439C44.8986 49.8651 44.9803 50.0793 45.1303 50.2412L45.2322 50.3437C45.3917 50.5034 45.6073 50.5934 45.8324 50.5942C46.0002 50.5941 46.1643 50.5439 46.3038 50.45C46.4434 50.3562 46.5521 50.2228 46.6163 50.0669C46.6805 49.9109 46.6974 49.7393 46.6647 49.5737C46.6319 49.4081 46.5512 49.256 46.4325 49.1365L46.3306 49.034Z" fill="white"/>
<path d="M35.6071 49.034L35.5051 49.1365C35.4257 49.2154 35.3626 49.3094 35.3196 49.413C35.2766 49.5166 35.2544 49.6278 35.2544 49.7401C35.2544 49.8524 35.2766 49.9636 35.3196 50.0672C35.3626 50.1708 35.4257 50.2648 35.5051 50.3437C35.6644 50.5036 35.8803 50.5935 36.1053 50.5935C36.3304 50.5935 36.5462 50.5036 36.7055 50.3437L36.8074 50.2412C36.9574 50.0793 37.0391 49.8651 37.0352 49.6439C37.0313 49.4226 36.9422 49.2114 36.7866 49.055C36.631 48.8985 36.4211 48.8088 36.201 48.8049C35.981 48.801 35.7681 48.8832 35.6071 49.034Z" fill="white"/>
<path d="M40.9686 45.703C41.1936 45.7022 41.4093 45.6122 41.5688 45.4525L46.3305 40.6638C46.4805 40.5019 46.5622 40.2877 46.5583 40.0665C46.5544 39.8452 46.4653 39.6341 46.3097 39.4776C46.1541 39.3211 45.9441 39.2315 45.7241 39.2276C45.5041 39.2236 45.2911 39.3058 45.1301 39.4566L40.3684 44.2454C40.289 44.3243 40.2259 44.4182 40.1829 44.5219C40.1398 44.6255 40.1177 44.7366 40.1177 44.8489C40.1177 44.9612 40.1398 45.0724 40.1829 45.176C40.2259 45.2796 40.289 45.3736 40.3684 45.4525C40.5279 45.6122 40.7435 45.7022 40.9686 45.703Z" fill="white"/>
<path d="M49.5806 34.7932C53.4478 34.6964 57.8528 31.2629 57.9943 26.4742C58.0233 25.4199 57.8372 24.3708 57.4477 23.3916C57.0582 22.4123 56.4735 21.5236 55.7296 20.7802C53.7592 18.7417 50.9225 17.6428 49.2466 17.6428C47.7869 17.6392 46.3499 18.0054 45.0681 18.7075C44.1415 16.6927 42.6586 14.9882 40.7961 13.7968C38.9335 12.6054 36.7698 11.9775 34.5625 11.9877C32.3552 11.9979 30.1973 12.6458 28.3457 13.8543C26.4941 15.0628 25.0269 16.7811 24.1188 18.8044C22.7854 18.0388 21.2756 17.6387 19.7402 17.644C18.2049 17.6493 16.6979 18.0598 15.3698 18.8346C14.0417 19.6093 12.9391 20.7211 12.1722 22.0587C11.4054 23.3964 11.0012 24.9131 11 26.4571C11.009 28.442 11.6801 30.3665 12.9058 31.9223C14.1315 33.4781 15.841 34.5753 17.7604 35.038V47.656C17.7601 47.7873 17.7902 47.9168 17.8482 48.0343C17.9061 48.1519 17.9904 48.2544 18.0944 48.3336C19.8846 49.6997 21.9094 50.7227 24.0678 51.3515C26.3762 52.0196 28.7948 52.2132 31.1792 51.9209C32.1896 53.3395 33.4921 54.5223 34.9982 55.3889C36.5042 56.2554 38.1783 56.7853 39.9063 56.9424C41.6344 57.0994 43.3758 56.88 45.0119 56.299C46.648 55.7181 48.1404 54.7893 49.3872 53.5759C50.6341 52.3625 51.6063 50.893 52.2374 49.2676C52.8685 47.6422 53.1438 45.8991 53.0444 44.157C52.9451 42.415 52.4735 40.7149 51.6618 39.1727C50.8501 37.6305 49.7173 36.2824 48.3407 35.2203V34.7306C48.7513 34.7881 49.1663 34.809 49.5806 34.7932ZM51.3528 44.8489C51.3528 46.9143 50.7438 48.9333 49.6028 50.6506C48.4618 52.368 46.84 53.7064 44.9426 54.4968C43.0451 55.2872 40.9573 55.494 38.9429 55.0911C36.9286 54.6882 35.0784 53.6936 33.6261 52.2331C32.1739 50.7726 31.1849 48.9119 30.7843 46.8862C30.3836 44.8605 30.5892 42.7608 31.3752 40.8526C32.1611 38.9444 33.492 37.3134 35.1997 36.166C36.9073 35.0185 38.915 34.406 40.9688 34.406C43.7219 34.409 46.3614 35.5102 48.3081 37.468C50.2548 39.4257 51.3498 42.0802 51.3528 44.8489ZM47.7858 32.806C47.6594 32.7633 47.5247 32.7514 47.3928 32.7712C47.261 32.791 47.1356 32.8419 47.0271 32.9199C46.9181 32.9976 46.8286 33.0999 46.7657 33.2185C46.7028 33.3371 46.6682 33.4688 46.6647 33.6032V34.1612C45.1672 33.3583 43.517 32.8847 41.8237 32.7718V32.0031H42.8033C43.0285 32.0031 43.2445 31.9131 43.4038 31.7529C43.5631 31.5928 43.6526 31.3756 43.6526 31.149C43.6526 30.9225 43.5631 30.7053 43.4038 30.5451C43.2445 30.3849 43.0285 30.2949 42.8033 30.2949H39.1456C38.9204 30.2949 38.7043 30.3849 38.5451 30.5451C38.3858 30.7053 38.2963 30.9225 38.2963 31.149C38.2963 31.3756 38.3858 31.5928 38.5451 31.7529C38.7043 31.9131 38.9204 32.0031 39.1456 32.0031H40.1251V32.7718C38.1385 32.9075 36.2163 33.5362 34.5304 34.6017C32.8446 35.6672 31.4475 37.1363 30.4643 38.8776C29.4811 40.6188 28.9422 42.578 28.8961 44.5799C28.8499 46.5818 29.2978 48.5641 30.1997 50.3493C28.2913 50.4719 26.3761 50.2639 24.5378 49.7344C22.7097 49.208 20.9858 48.3681 19.442 47.2518V34.3263C19.4413 34.121 19.367 33.9228 19.2329 33.7681C19.0988 33.6133 18.9137 33.5123 18.7116 33.4836C16.9569 33.2077 15.3699 32.2774 14.2665 30.878C13.163 29.4785 12.624 27.7125 12.7568 25.9315C12.8896 24.1504 13.6844 22.485 14.983 21.2666C16.2816 20.0483 17.9888 19.3664 19.7647 19.3567C21.2969 19.3513 22.7886 19.8513 24.0112 20.7802C24.1178 20.8624 24.2425 20.9179 24.3747 20.9419C24.507 20.9659 24.643 20.9578 24.7715 20.9183C24.9 20.8787 25.0173 20.8089 25.1135 20.7145C25.2097 20.6202 25.2822 20.5041 25.3248 20.3759C25.9882 18.444 27.2313 16.7668 28.8828 15.5756C30.5342 14.3844 32.5126 13.738 34.5448 13.7255C36.5771 13.713 38.5631 14.335 40.2289 15.5058C41.8948 16.6766 43.1582 18.3385 43.8451 20.262C43.8904 20.3859 43.9636 20.4976 44.0588 20.5885C44.154 20.6793 44.2688 20.7469 44.3941 20.786C44.5195 20.8251 44.6521 20.8346 44.7818 20.8139C44.9114 20.7931 45.0346 20.7426 45.1417 20.6663C46.3342 19.8097 47.7641 19.3516 49.2296 19.3567C50.362 19.3567 52.7683 20.188 54.4952 21.9759C55.0857 22.5546 55.5505 23.25 55.8604 24.0183C56.1703 24.7867 56.3185 25.6112 56.2957 26.4401C56.1768 30.4657 52.2814 33.0281 49.541 33.0964C48.9434 33.106 48.3489 33.0076 47.7858 32.806Z" fill="white"/>
<path d="M19.7645 23.1375C19.0702 23.1356 18.3931 23.3549 17.8306 23.7642C17.268 24.1734 16.8489 24.7514 16.6334 25.4152C16.5986 25.5232 16.5857 25.6371 16.5954 25.7502C16.6052 25.8633 16.6374 25.9733 16.6902 26.0736C16.743 26.174 16.8153 26.2627 16.9028 26.3344C16.9903 26.4062 17.0912 26.4595 17.1996 26.4913C17.2838 26.5185 17.3717 26.5319 17.4601 26.5312C17.6372 26.533 17.8105 26.4792 17.9557 26.3771C18.1009 26.275 18.2107 26.1297 18.2697 25.9618C18.3672 25.633 18.5675 25.3447 18.8408 25.1396C19.1142 24.9344 19.4461 24.8234 19.7871 24.823C20.0124 24.823 20.2284 24.733 20.3877 24.5728C20.547 24.4126 20.6364 24.1954 20.6364 23.9689C20.6364 23.7423 20.547 23.5251 20.3877 23.3649C20.2284 23.2048 20.0124 23.1147 19.7871 23.1147L19.7645 23.1375Z" fill="white"/>
<path d="M50.7584 25.9161C50.8172 26.0832 50.9261 26.2277 51.0701 26.3297C51.2142 26.4318 51.3862 26.4862 51.5624 26.4855C51.6584 26.4839 51.7538 26.4685 51.8455 26.44C51.9508 26.4024 52.0478 26.3442 52.1307 26.2689C52.2136 26.1936 52.2809 26.1025 52.3288 26.0009C52.3767 25.8993 52.4041 25.7893 52.4096 25.677C52.4151 25.5648 52.3985 25.4525 52.3608 25.3467C52.1339 24.7013 51.7137 24.1423 51.1581 23.7467C50.6025 23.3511 49.9387 23.1383 49.258 23.1375C49.0327 23.1375 48.8167 23.2274 48.6575 23.3876C48.4982 23.5478 48.4087 23.765 48.4087 23.9916C48.4087 24.2181 48.4982 24.4353 48.6575 24.5955C48.8167 24.7557 49.0327 24.8457 49.258 24.8457C49.5873 24.8467 49.9083 24.9501 50.1769 25.1417C50.4455 25.3334 50.6486 25.6039 50.7584 25.9161Z" fill="white"/>
<path d="M34.6048 17.5005C33.6626 17.5007 32.7335 17.7228 31.8918 18.1489C31.0502 18.5751 30.3195 19.1935 29.7582 19.9546C29.663 20.081 29.6049 20.2316 29.5905 20.3895C29.576 20.5474 29.6059 20.7061 29.6766 20.8478C29.7473 20.9895 29.8561 21.1084 29.9906 21.1911C30.1252 21.2737 30.28 21.3168 30.4376 21.3155C30.5703 21.3155 30.7011 21.2847 30.82 21.2254C30.9388 21.1662 31.0425 21.0801 31.1228 20.9739C31.7266 20.1532 32.5986 19.5726 33.5857 19.334C33.9188 19.2493 34.2612 19.2072 34.6048 19.2087C34.8301 19.2087 35.0461 19.1187 35.2054 18.9585C35.3647 18.7984 35.4541 18.5811 35.4541 18.3546C35.4541 18.1281 35.3647 17.9108 35.2054 17.7506C35.0461 17.5905 34.8301 17.5005 34.6048 17.5005Z" fill="white"/>
<path d="M31.2925 33.8707L30.0526 35.1177C29.9339 35.2372 29.8532 35.3893 29.8205 35.5549C29.7878 35.7205 29.8046 35.8921 29.8688 36.0481C29.933 36.204 30.0418 36.3374 30.1813 36.4312C30.3208 36.5251 30.4849 36.5753 30.6527 36.5754C30.7643 36.5756 30.8748 36.5536 30.9778 36.5106C31.0808 36.4676 31.1743 36.4045 31.2529 36.3249L32.4929 35.0779C32.5723 34.999 32.6354 34.905 32.6784 34.8014C32.7215 34.6978 32.7436 34.5866 32.7436 34.4743C32.7436 34.362 32.7215 34.2508 32.6784 34.1472C32.6354 34.0436 32.5723 33.9497 32.4929 33.8707C32.3329 33.7122 32.1173 33.6233 31.8927 33.6233C31.6681 33.6233 31.4525 33.7122 31.2925 33.8707Z" fill="white"/>
</g>
<defs>
<clipPath id="clip0">
<rect width="47" height="45" fill="white" transform="translate(11 12)"/>
</clipPath>
</defs>
</svg>
