<svg width="65" height="66" viewBox="0 0 65 66" fill="none" xmlns="http://www.w3.org/2000/svg">
<g clip-path="url(#clip0)">
<path d="M55.6246 9.29469C50.327 3.85699 43.4973 0.758749 35.1356 0H31.2594C22.4879 0.885207 15.5345 4.13039 10.3993 9.73546C4.49258 16.2295 1.47283 23.5844 1.33993 31.8005C1.39168 37.046 2.66635 42.2059 5.06116 46.8639C5.29782 47.4686 5.4253 48.111 5.43768 48.7608C5.44264 49.4487 5.33599 50.1327 5.122 50.786C1.68871 60.8543 -0.027832 65.9331 -0.027832 66.0224L0.221332 65.643C0.258249 65.8103 0.31907 65.894 0.403979 65.894C2.59686 65.098 5.49496 64.1292 9.09807 62.9873C13.7718 61.4698 16.6698 60.5214 17.792 60.142C23.0453 62.8832 28.1344 64.2538 33.0592 64.2538H34.0559C39.5855 64.0891 44.9772 62.4759 49.6996 59.573C58.8033 53.8377 63.8943 45.3464 64.9722 34.0991V30.1156C64.2044 21.7917 61.0883 14.8514 55.6246 9.29469ZM58.9804 39.7004C56.5771 47.5818 51.5067 53.2705 43.7689 56.7667C40.3787 58.3275 36.6922 59.1271 32.9649 59.1099C32.011 59.109 31.0584 59.0437 30.1131 58.9146C26.462 58.498 22.5709 57.0457 18.4399 54.5574L8.25635 57.8435C8.38372 57.4195 9.16452 54.9758 10.6154 50.5126L11.6066 47.9797C11.5678 47.9797 10.9642 47.0313 9.8069 45.14C8.08882 41.9026 7.01285 38.359 6.63929 34.7072C6.51642 33.6779 6.45548 32.642 6.45664 31.6053C6.45664 22.7569 10.2019 15.5506 17.6924 9.98649C21.5828 7.09943 26.22 5.40969 31.0434 5.12159C31.7854 5.07695 32.5108 5.06022 33.2141 5.06022C41.4503 5.06022 48.1969 8.28302 53.4539 14.7287C57.8397 19.8725 60.0325 25.4981 60.0325 31.6053C60.0131 34.3369 59.6598 37.0558 58.9804 39.7004Z" fill="#F7A9D4"/>
<path d="M48.9687 41.4187C49.0118 42.6596 48.69 43.8856 48.0437 44.9427C47.3974 45.9999 46.4554 46.841 45.336 47.3604C44.0013 48.094 42.5142 48.501 40.9946 48.5488H40.2138C37.2583 47.9684 34.4001 46.9671 31.7247 45.5752C27.4904 43.5481 23.5568 39.9608 19.9242 34.8132C17.34 31.0306 16.0479 27.884 16.0479 25.3734C16.0479 20.9697 17.4526 18.3662 20.262 17.5628C20.8413 17.4753 21.4261 17.4305 22.0118 17.4289C22.5222 17.4205 23.0296 17.5096 23.5071 17.6911C23.8504 17.8697 24.5408 19.125 25.5781 21.457C26.1927 22.8577 26.7343 24.2897 27.2006 25.7472C27.2006 26.4111 26.7908 27.1755 25.9657 28.057L24.4762 30.0376C24.4762 30.5694 25.2145 31.8247 26.6912 33.8034C28.3085 36.0078 30.3618 37.8504 32.7215 39.215C34.6708 40.3308 35.9629 40.8888 36.5978 40.8888H36.7252C37.0741 40.8441 37.7829 40.1188 38.8683 38.7129C39.9537 37.307 40.6569 36.6654 41.0057 36.6654C41.482 36.6654 42.9051 37.2568 45.2863 38.4451C46.5674 39.0161 47.7837 39.725 48.9135 40.5596C48.9525 40.8443 48.9708 41.1314 48.9687 41.4187Z" fill="#F7A9D4"/>
</g>
<defs>
<clipPath id="clip0">
<rect width="65" height="66" fill="white"/>
</clipPath>
</defs>
</svg>
